<?xml version="1.0" encoding="UTF-8" standalone="no"?>
<svg
xmlns="http://www.w3.org/2000/svg"
version="1.0"
width="1660" height="1660"
id="7-simplex_t0.svg">
<g style="stroke:#b39700;stroke-width:24.0;stroke-opacity:0.90;">
<line x1="1600.000" y1="840.000" x2="1377.401" y2="1377.401"/>
<line x1="1600.000" y1="840.000" x2="840.000" y2="1600.000"/>
<line x1="1600.000" y1="840.000" x2="80.000" y2="840.000"/>
<line x1="1600.000" y1="840.000" x2="840.000" y2="80.000"/>
<line x1="1600.000" y1="840.000" x2="1377.401" y2="302.599"/>
<line x1="1377.401" y1="1377.401" x2="840.000" y2="1600.000"/>
<line x1="1377.401" y1="1377.401" x2="302.599" y2="1377.401"/>
<line x1="1377.401" y1="1377.401" x2="302.599" y2="302.599"/>
<line x1="1377.401" y1="1377.401" x2="1377.401" y2="302.599"/>
<line x1="840.000" y1="1600.000" x2="302.599" y2="1377.401"/>
<line x1="840.000" y1="1600.000" x2="80.000" y2="840.000"/>
<line x1="840.000" y1="1600.000" x2="840.000" y2="80.000"/>
<line x1="302.599" y1="1377.401" x2="80.000" y2="840.000"/>
<line x1="302.599" y1="1377.401" x2="302.599" y2="302.599"/>
<line x1="302.599" y1="1377.401" x2="1377.401" y2="302.599"/>
<line x1="80.000" y1="840.000" x2="302.599" y2="302.599"/>
<line x1="80.000" y1="840.000" x2="840.000" y2="80.000"/>
<line x1="302.599" y1="302.599" x2="840.000" y2="80.000"/>
<line x1="302.599" y1="302.599" x2="1377.401" y2="302.599"/>
<line x1="840.000" y1="80.000" x2="1377.401" y2="302.599"/>
</g>
<g style="stroke:#b39700;stroke-width:4.0;fill:#ffd700">
<circle cx="1600.000" cy="840.000" r="50.0"/>
<circle cx="1377.401" cy="1377.401" r="50.0"/>
<circle cx="840.000" cy="1600.000" r="50.0"/>
<circle cx="302.599" cy="1377.401" r="50.0"/>
<circle cx="80.000" cy="840.000" r="50.0"/>
<circle cx="302.599" cy="302.599" r="50.0"/>
<circle cx="840.000" cy="80.000" r="50.0"/>
<circle cx="1377.401" cy="302.599" r="50.0"/>
</g>
</svg>
